<svg width="88" height="88" viewBox="0 0 88 88" fill="none" xmlns="http://www.w3.org/2000/svg">
<g id="Group 18">
<g id="Bitmap">
<circle id="Mask" cx="44" cy="44" r="44" fill="#36536B"/>
<mask id="mask0_0_3369" style="mask-type:luminance" maskUnits="userSpaceOnUse" x="0" y="0" width="88" height="88">
<circle id="Mask_2" cx="44" cy="44" r="44" fill="white"/>
</mask>
<g mask="url(#mask0_0_3369)">
</g>
</g>
<path id="Combined Shape" fill-rule="evenodd" clip-rule="evenodd" d="M34.346 42.1414C33.821 42.6471 33.1106 42.962 32.3257 42.962C30.7164 42.962 29.4071 41.6527 29.4071 40.0434C29.4071 38.4341 30.7164 37.1248 32.3257 37.1248C33.935 37.1248 35.2444 38.4341 35.2444 40.0434C35.2444 40.135 35.2322 40.2232 35.22 40.3115C35.2161 40.34 35.2122 40.3685 35.2086 40.3971L38.0885 41.8369C38.6135 41.3312 39.3239 41.0163 40.1087 41.0163C40.5579 41.0163 40.9785 41.1267 41.359 41.3089L45.2658 37.4022C45.0836 37.0217 44.9731 36.6011 44.9731 36.1519C44.9731 34.5426 46.2825 33.2333 47.8918 33.2333C48.4892 33.2333 49.0443 33.4149 49.5074 33.7243L52.9018 31.1791C52.8157 30.9042 52.7562 30.6176 52.7562 30.3146C52.7562 28.7053 54.0655 27.396 55.6748 27.396C57.2841 27.396 58.5934 28.7053 58.5934 30.3146C58.5934 31.9239 57.2841 33.2333 55.6748 33.2333C55.0774 33.2333 54.5223 33.0516 54.0592 32.7423L50.6647 35.2875C50.7509 35.5623 50.8104 35.8489 50.8104 36.1519C50.8104 37.7612 49.5011 39.0705 47.8918 39.0705C47.4426 39.0705 47.022 38.9601 46.6415 38.7779L42.7348 42.6846C42.9169 43.0651 43.0274 43.4857 43.0274 43.9349C43.0274 45.5442 41.7181 46.8535 40.1087 46.8535C38.4994 46.8535 37.1901 45.5442 37.1901 43.9349C37.1901 43.8433 37.2023 43.7551 37.2145 43.6668C37.2184 43.6383 37.2223 43.6098 37.2258 43.5812L34.346 42.1414ZM58.5934 58.6578H59.6312C60.1688 58.6578 60.604 59.093 60.604 59.6307C60.604 60.1683 60.1688 60.6035 59.6312 60.6035H28.3694C27.8317 60.6035 27.3965 60.1683 27.3965 59.6307C27.3965 59.093 27.8317 58.6578 28.3694 58.6578H29.4071V47.8264C29.4071 47.2888 29.8424 46.8535 30.38 46.8535H34.2715C34.8091 46.8535 35.2444 47.2888 35.2444 47.8264V58.6578H37.1901V51.7179C37.1901 51.1803 37.6254 50.7451 38.163 50.7451H42.0545C42.5921 50.7451 43.0274 51.1803 43.0274 51.7179V58.6578H44.9731V43.9349C44.9731 43.3973 45.4084 42.962 45.946 42.962H49.8375C50.3751 42.962 50.8104 43.3973 50.8104 43.9349V58.6578H52.7562V38.0976C52.7562 37.56 53.1914 37.1248 53.729 37.1248H57.6205C58.1582 37.1248 58.5934 37.56 58.5934 38.0976V58.6578Z" fill="white"/>
</g>
</svg>
