<svg width="88" height="88" viewBox="0 0 88 88" fill="none" xmlns="http://www.w3.org/2000/svg">
<g id="Group 19">
<g id="Bitmap">
<circle id="Mask" cx="44" cy="44" r="44" fill="#36536B"/>
<mask id="mask0_0_3380" style="mask-type:luminance" maskUnits="userSpaceOnUse" x="0" y="0" width="88" height="88">
<circle id="Mask_2" cx="44" cy="44" r="44" fill="white"/>
</mask>
<g mask="url(#mask0_0_3380)">
</g>
</g>
<path id="Combined Shape" fill-rule="evenodd" clip-rule="evenodd" d="M60.5608 37.6828V37.9638C60.5608 38.3936 60.2124 38.7421 59.7825 38.7421H28.1748C27.745 38.7421 27.3965 38.3936 27.3965 37.9638V37.6828C27.3965 35.2111 29.4001 33.2075 31.8717 33.2075H56.0856C58.5572 33.2075 60.5608 35.2111 60.5608 37.6828ZM27.3965 42.2444V50.8274C27.3965 53.299 29.4001 55.3026 31.8717 55.3026H56.0856C58.5572 55.3026 60.5608 53.299 60.5608 50.8274V42.2444C60.5608 41.8146 60.2124 41.4661 59.7825 41.4661H28.1748C27.745 41.4661 27.3965 41.8146 27.3965 42.2444ZM35.6768 47.6926H33.6013C32.8491 47.6926 32.2393 47.0828 32.2393 46.3305C32.2393 45.5783 32.8491 44.9685 33.6013 44.9685H35.6768C36.429 44.9685 37.0388 45.5783 37.0388 46.3305C37.0388 47.0828 36.429 47.6926 35.6768 47.6926Z" fill="white"/>
</g>
</svg>
