<svg width="88" height="88" viewBox="0 0 88 88" fill="none" xmlns="http://www.w3.org/2000/svg">
<circle cx="44" cy="44" r="44" fill="#36536B"/>
<mask id="mask0_0_3351" style="mask-type:luminance" maskUnits="userSpaceOnUse" x="0" y="0" width="88" height="88">
<circle cx="44" cy="44" r="44" fill="white"/>
</mask>
<g mask="url(#mask0_0_3351)">
</g>
<path fill-rule="evenodd" clip-rule="evenodd" d="M49.8063 26.0507L47.2303 33.5589H32.5584L29.982 26.0507L34.2516 23.2451L37.073 25.0993L39.8943 23.2451L42.7157 25.0993L45.537 23.2451L49.8063 26.0507ZM33.0426 35.9772H46.746V38.3956H33.0426V35.9772ZM45.6176 50.003H51.7641C51.6372 49.6485 51.492 49.2978 51.3274 48.9521L47.4519 40.8139H32.3367L28.4613 48.9521C26.8464 52.3433 27.0794 56.2644 29.085 59.4402C31.0903 62.6164 34.53 64.5127 38.2864 64.5127H41.5022C42.0746 64.5127 42.6417 64.468 43.1993 64.3821V57.258H45.6176V50.003ZM42.8904 53.8668C42.738 54.1763 42.5375 54.4301 42.2887 54.6275C42.04 54.8252 41.756 54.9745 41.4368 55.0752C41.1175 55.1756 40.7869 55.2374 40.4453 55.2597V56.6132H39.5546V55.2374C39.042 55.1926 38.5332 55.0919 38.0285 54.9354C37.5235 54.7786 37.0708 54.5812 36.67 54.3422L37.6054 52.4295C37.8059 52.5564 38.0213 52.6758 38.2514 52.7875C38.4444 52.8845 38.6689 52.9796 38.9252 53.0728C39.1815 53.1663 39.4431 53.2311 39.7104 53.2683V52.2841C39.4803 52.2246 39.2501 52.1537 39.02 52.0716C38.6708 51.9522 38.3701 51.8238 38.118 51.6856C37.8654 51.5477 37.6573 51.3912 37.4942 51.2158C37.3308 51.0408 37.2102 50.8411 37.1322 50.6176C37.0541 50.3937 37.015 50.1365 37.015 49.8456C37.015 49.4429 37.0821 49.0868 37.2156 48.7773C37.3494 48.4681 37.5311 48.2012 37.7612 47.9776C37.9914 47.7538 38.2606 47.5749 38.5688 47.4405C38.877 47.3064 39.2054 47.2207 39.5546 47.1833V46.0536H40.4456V47.1946C40.6906 47.2242 40.928 47.2692 41.1584 47.329C41.3886 47.3885 41.6093 47.4575 41.8212 47.5356C42.0328 47.614 42.2314 47.6961 42.4169 47.7818C42.6026 47.8677 42.7733 47.948 42.9294 48.0223L41.9937 49.8232C41.8303 49.719 41.6521 49.6221 41.4591 49.5323C41.2957 49.4505 41.1118 49.374 40.9078 49.3031C40.7035 49.2323 40.4976 49.1784 40.2895 49.141V50.1475C40.3565 50.163 40.427 50.1831 40.5013 50.2092C40.5753 50.2354 40.6534 50.2596 40.7353 50.282C41.0989 50.3937 41.4273 50.5169 41.7207 50.651C42.0142 50.7854 42.2648 50.9438 42.4726 51.1264C42.6804 51.3093 42.8403 51.5313 42.9515 51.792C43.0629 52.0533 43.1187 52.37 43.1187 52.7431C43.1187 53.183 43.0425 53.5576 42.8904 53.8668ZM39.2649 49.4873C39.2649 49.5994 39.3021 49.6907 39.3764 49.7615C39.4507 49.8327 39.5618 49.8979 39.7104 49.9574V49.1073C39.4135 49.1444 39.2649 49.2713 39.2649 49.4873ZM40.2895 52.4743V53.302C40.468 53.2872 40.5939 53.2497 40.6682 53.1902C40.7425 53.1304 40.7797 53.0523 40.7797 52.9553C40.7797 52.8508 40.7353 52.7595 40.6459 52.6811C40.5568 52.603 40.4381 52.5341 40.2895 52.4743ZM48.0359 52.4214H60.53V57.258H48.0359V52.4214ZM58.112 59.6761H45.6176V64.5127H58.112V59.6761Z" fill="#EDF3F8"/>
</svg>
